{
  "accessors": [
    {
      "bufferView": 2,
      "componentType": 5126,
      "count": 2177,
      "max": [
        0.33425021171569824,
        0.9217574596405029,
        0.6756214499473572
      ],
      "min": [
        -0.33425024151802063,
        -0.21780464053153992,
        -0.10573021322488785
      ],
      "type": "VEC3"
    },
    {
      "bufferView": 2,
      "byteOffset": 26124,
      "componentType": 5126,
      "count": 2177,
      "max": [
        1.0,
        1.0,
        1.0
      ],
      "min": [
        -1.0,
        -1.0,
        -0.9708188772201538
      ],
      "type": "VEC3"
    },
    {
      "bufferView": 3,
      "componentType": 5126,
      "count": 2177,
      "max": [
        1.0,
        1.0,
        1.0,
        1.0
      ],
      "min": [
        -1.0,
        -0.9999996423721313,
        -1.0,
        -1.0
      ],
      "type": "VEC4"
    },
    {
      "bufferView": 1,
      "componentType": 5126,
      "count": 2177,
      "max": [
        0.9995060563087463,
        1.0
      ],
      "min": [
        0.0,
        0.0
      ],
      "type": "VEC2"
    },
    {
      "bufferView": 0,
      "componentType": 5125,
      "count": 2364,
      "type": "SCALAR"
    }
  ],
  "asset": {
    "extras": {
      "author": "Styro (https://sketchfab.com/Styro_)",
      "license": "CC-BY-4.0 (http://creativecommons.org/licenses/by/4.0/)",
      "source": "https://sketchfab.com/3d-models/big-sand-castle-low-poly-dc012035359441c7b33f39f791f89d95",
      "title": "Big Sand Castle - Low Poly"
    },
    "generator": "Sketchfab-13.40.0",
    "version": "2.0"
  },
  "bufferViews": [
    {
      "buffer": 0,
      "byteLength": 9456,
      "name": "floatBufferViews",
      "target": 34963
    },
    {
      "buffer": 0,
      "byteLength": 17416,
      "byteOffset": 9456,
      "byteStride": 8,
      "name": "floatBufferViews",
      "target": 34962
    },
    {
      "buffer": 0,
      "byteLength": 52248,
      "byteOffset": 26872,
      "byteStride": 12,
      "name": "floatBufferViews",
      "target": 34962
    },
    {
      "buffer": 0,
      "byteLength": 34832,
      "byteOffset": 79120,
      "byteStride": 16,
      "name": "floatBufferViews",
      "target": 34962
    }
  ],
  "buffers": [
    {
      "byteLength": 113952,
      "uri": "scene.bin"
    }
  ],
  "images": [
    {
      "uri": "textures/Sandcastle_baseColor.png"
    },
    {
      "uri": "textures/Sandcastle_metallicRoughness.png"
    },
    {
      "uri": "textures/Sandcastle_normal.png"
    }
  ],
  "materials": [
    {
      "doubleSided": true,
      "name": "Sandcastle",
      "normalTexture": {
        "index": 2
      },
      "occlusionTexture": {
        "index": 1
      },
      "pbrMetallicRoughness": {
        "baseColorTexture": {
          "index": 0
        },
        "metallicFactor": 0.0,
        "metallicRoughnessTexture": {
          "index": 1
        }
      }
    }
  ],
  "meshes": [
    {
      "name": "castle_low_Sandcastle_0",
      "primitives": [
        {
          "attributes": {
            "NORMAL": 1,
            "POSITION": 0,
            "TANGENT": 2,
            "TEXCOORD_0": 3
          },
          "indices": 4,
          "material": 0,
          "mode": 4
        }
      ]
    }
  ],
  "nodes": [
    {
      "children": [
        1
      ],
      "matrix": [
        1.0,
        0.0,
        0.0,
        0.0,
        0.0,
        2.220446049250313e-16,
        -1.0,
        0.0,
        0.0,
        1.0,
        2.220446049250313e-16,
        0.0,
        0.0,
        0.0,
        0.0,
        1.0
      ],
      "name": "Sketchfab_model"
    },
    {
      "children": [
        2
      ],
      "matrix": [
        0.009999999776482582,
        0.0,
        0.0,
        0.0,
        0.0,
        0.0,
        0.009999999776482582,
        0.0,
        0.0,
        -0.009999999776482582,
        0.0,
        0.0,
        0.0,
        0.0,
        0.0,
        1.0
      ],
      "name": "5dbb6fc1e83a49ec84fa19fddab06d9d.fbx"
    },
    {
      "children": [
        3
      ],
      "name": "RootNode"
    },
    {
      "children": [
        4
      ],
      "matrix": [
        115.65921020507813,
        0.0,
        0.0,
        0.0,
        0.0,
        -7.844357504363027e-06,
        -48.14832305908139,
        0.0,
        0.0,
        86.3801345825184,
        -1.4073110212141914e-05,
        0.0,
        0.0,
        8.969833374023438,
        20.093467712402344,
        1.0
      ],
      "name": "castle_low"
    },
    {
      "mesh": 0,
      "name": "castle_low_Sandcastle_0"
    }
  ],
  "samplers": [
    {
      "magFilter": 9729,
      "minFilter": 9987,
      "wrapS": 10497,
      "wrapT": 10497
    }
  ],
  "scene": 0,
  "scenes": [
    {
      "name": "Sketchfab_Scene",
      "nodes": [
        0
      ]
    }
  ],
  "textures": [
    {
      "sampler": 0,
      "source": 0
    },
    {
      "sampler": 0,
      "source": 1
    },
    {
      "sampler": 0,
      "source": 2
    }
  ]
}
